HIERARCHY
ROOT newVegas:Hips
{
	OFFSET 0.000000 96.479958 0.000000
	CHANNELS 6 Xposition Yposition Zposition Xrotation Yrotation Zrotation
	JOINT newVegas:Pelvis
	{
		OFFSET 0.000000 0.000000 0.000000
		CHANNELS 3 Xrotation Yrotation Zrotation
		JOINT newVegas:LeftUpLeg
		{
			OFFSET 18.735201 -5.666702 -4.541200
			CHANNELS 3 Xrotation Yrotation Zrotation
			JOINT newVegas:LeftLeg
			{
				OFFSET -0.021200 -31.938179 0.493100
				CHANNELS 3 Xrotation Yrotation Zrotation
				JOINT newVegas:LeftFoot
				{
					OFFSET 0.021200 -31.938179 -4.336299
					CHANNELS 3 Xrotation Yrotation Zrotation
					JOINT newVegas:LeftToeBase
					{
						OFFSET 0.943001 -26.722000 15.023500
						CHANNELS 3 Xrotation Yrotation Zrotation
						End Site
						{
							OFFSET 0.000000 30.670183 0.000000
						}
					}
				}
				JOINT newVegas:Left_PantLeg
				{
					OFFSET 0.663870 -9.044666 -1.108900
					CHANNELS 3 Xrotation Yrotation Zrotation
					End Site
					{
						OFFSET 1.415995 20.635357 0.000000
					}
				}
			}
		}
		JOINT newVegas:RightUpLeg
		{
			OFFSET -18.735201 -5.666702 -4.541200
			CHANNELS 3 Xrotation Yrotation Zrotation
			JOINT newVegas:RightLeg
			{
				OFFSET 0.018946 -31.938133 0.493100
				CHANNELS 3 Xrotation Yrotation Zrotation
				JOINT newVegas:RightFoot
				{
					OFFSET -0.018946 -31.938126 -4.336299
					CHANNELS 3 Xrotation Yrotation Zrotation
					JOINT newVegas:RightToeBase
					{
						OFFSET -0.943001 -26.722004 15.023500
						CHANNELS 3 Xrotation Yrotation Zrotation
						End Site
						{
							OFFSET 0.000000 30.670187 0.000000
						}
					}
				}
				JOINT newVegas:Right_PantLeg
				{
					OFFSET -0.661674 -9.044716 -1.108900
					CHANNELS 3 Xrotation Yrotation Zrotation
					End Site
					{
						OFFSET -1.415958 20.635269 0.000000
					}
				}
			}
		}
	}
	JOINT newVegas:Spine
	{
		OFFSET 0.000000 10.199997 -0.299500
		CHANNELS 3 Xrotation Yrotation Zrotation
		JOINT newVegas:Spine1
		{
			OFFSET 0.000000 11.900002 -1.516600
			CHANNELS 3 Xrotation Yrotation Zrotation
			JOINT newVegas:Spine2
			{
				OFFSET 0.000000 13.600006 -2.842500
				CHANNELS 3 Xrotation Yrotation Zrotation
				JOINT newVegas:Neck
				{
					OFFSET 0.000000 9.624100 -2.890100
					CHANNELS 3 Xrotation Yrotation Zrotation
					JOINT newVegas:Head
					{
						OFFSET 0.000000 14.068802 -1.351900
						CHANNELS 3 Xrotation Yrotation Zrotation
						JOINT newVegas:Hair_Back
						{
							OFFSET 0.000000 3.231903 -17.524799
							CHANNELS 3 Xrotation Yrotation Zrotation
							End Site
							{
								OFFSET 0.000000 19.849884 0.000000
							}
						}
						JOINT newVegas:Hair_Front
						{
							OFFSET 0.000000 31.260406 4.573800
							CHANNELS 3 Xrotation Yrotation Zrotation
							JOINT newVegas:Hair_Front1
							{
								OFFSET 0.000000 2.284103 11.993300
								CHANNELS 3 Xrotation Yrotation Zrotation
								JOINT newVegas:Hair_Front2
								{
									OFFSET 0.000000 2.284103 11.993300
									CHANNELS 3 Xrotation Yrotation Zrotation
									End Site
									{
										OFFSET 0.000000 12.208862 0.000000
									}
								}
							}
						}
						JOINT newVegas:Jowel
						{
							OFFSET 0.000000 -7.458206 6.864100
							CHANNELS 3 Xrotation Yrotation Zrotation
							End Site
							{
								OFFSET 0.000000 19.849884 0.000000
							}
						}
					}
				}
				JOINT newVegas:LeftShoulder
				{
					OFFSET 15.263000 10.923401 -0.547700
					CHANNELS 3 Xrotation Yrotation Zrotation
					JOINT newVegas:LeftArm
					{
						OFFSET 25.438599 -2.830597 -13.032500
						CHANNELS 3 Xrotation Yrotation Zrotation
						JOINT newVegas:LeftForeArm
						{
							OFFSET 29.960503 0.000000 0.000000
							CHANNELS 3 Xrotation Yrotation Zrotation
							JOINT newVegas:LeftHand
							{
								OFFSET 27.849251 0.000000 0.000000
								CHANNELS 3 Xrotation Yrotation Zrotation
								JOINT newVegas:LeftHandThumb1
								{
									OFFSET 4.487587 -3.305161 6.305391
									CHANNELS 3 Xrotation Yrotation Zrotation
									JOINT newVegas:LeftHandThumb2
									{
										OFFSET 5.480453 -3.164139 3.164143
										CHANNELS 3 Xrotation Yrotation Zrotation
										JOINT newVegas:LeftHandThumb3
										{
											OFFSET 5.159721 -2.978973 2.978967
											CHANNELS 3 Xrotation Yrotation Zrotation
											End Site
											{
												OFFSET 2.494507 5.926697 1.738678
											}
										}
									}
								}
								JOINT newVegas:LeftHandIndex1
								{
									OFFSET 18.578728 -0.527832 5.208049
									CHANNELS 3 Xrotation Yrotation Zrotation
									JOINT newVegas:LeftHandIndex2
									{
										OFFSET 3.192009 0.000000 0.000000
										CHANNELS 3 Xrotation Yrotation Zrotation
										JOINT newVegas:LeftHandIndex3
										{
											OFFSET 3.835129 0.000000 0.000000
											CHANNELS 3 Xrotation Yrotation Zrotation
											End Site
											{
												OFFSET -0.034599 3.816971 0.371180
											}
										}
									}
								}
								JOINT newVegas:LeftHandMiddle1
								{
									OFFSET 18.476105 0.000000 0.000000
									CHANNELS 3 Xrotation Yrotation Zrotation
									JOINT newVegas:LeftHandMiddle2
									{
										OFFSET 3.324875 0.000000 0.000000
										CHANNELS 3 Xrotation Yrotation Zrotation
										JOINT newVegas:LeftHandMiddle3
										{
											OFFSET 4.596550 0.000000 0.000000
											CHANNELS 3 Xrotation Yrotation Zrotation
											End Site
											{
												OFFSET 0.057701 4.578827 0.399218
											}
										}
									}
								}
								JOINT newVegas:LeftHandRing1
								{
									OFFSET 17.732719 0.121887 -4.201567
									CHANNELS 3 Xrotation Yrotation Zrotation
									JOINT newVegas:LeftHandRing2
									{
										OFFSET 2.733170 0.000000 0.000000
										CHANNELS 3 Xrotation Yrotation Zrotation
										JOINT newVegas:LeftHandRing3
										{
											OFFSET 3.178268 0.000000 0.000000
											CHANNELS 3 Xrotation Yrotation Zrotation
											End Site
											{
												OFFSET 0.119102 3.170624 0.185394
											}
										}
									}
								}
								JOINT newVegas:LeftHandPinky1
								{
									OFFSET 15.989624 -0.606689 -7.535461
									CHANNELS 3 Xrotation Yrotation Zrotation
									JOINT newVegas:LeftHandPinky2
									{
										OFFSET 2.538986 0.000000 0.000000
										CHANNELS 3 Xrotation Yrotation Zrotation
										JOINT newVegas:LeftHandPinky3
										{
											OFFSET 2.593102 0.000000 0.000000
											CHANNELS 3 Xrotation Yrotation Zrotation
											End Site
											{
												OFFSET -0.150902 2.584198 0.152708
											}
										}
									}
								}
							}
							JOINT newVegas:Left_Sleeve
							{
								OFFSET 0.267448 -0.649796 0.577675
								CHANNELS 3 Xrotation Yrotation Zrotation
								End Site
								{
									OFFSET 0.000000 15.991241 0.000000
								}
							}
							JOINT newVegas:Left_CapeC
							{
								OFFSET 15.715958 -8.608795 -6.935905
								CHANNELS 3 Xrotation Yrotation Zrotation
								JOINT newVegas:Left_CapeC1
								{
									OFFSET 0.000000 -8.688499 0.000000
									CHANNELS 3 Xrotation Yrotation Zrotation
									End Site
									{
										OFFSET 0.000000 8.688499 0.000000
									}
								}
							}
						}
						JOINT newVegas:Left_CapeB
						{
							OFFSET 26.118385 -8.608795 -7.079235
							CHANNELS 3 Xrotation Yrotation Zrotation
							JOINT newVegas:Left_CapeB1
							{
								OFFSET 0.000000 -8.688499 0.000000
								CHANNELS 3 Xrotation Yrotation Zrotation
								End Site
								{
									OFFSET 0.000000 8.688499 0.000000
								}
							}
						}
						JOINT newVegas:Left_CapeA
						{
							OFFSET 5.115639 -8.608795 -10.395809
							CHANNELS 3 Xrotation Yrotation Zrotation
							JOINT newVegas:Left_CapeA1
							{
								OFFSET 0.000000 -8.688499 0.000000
								CHANNELS 3 Xrotation Yrotation Zrotation
								End Site
								{
									OFFSET 0.000000 8.688499 0.000000
								}
							}
						}
					}
				}
				JOINT newVegas:RightShoulder
				{
					OFFSET -15.263000 10.923401 -0.547700
					CHANNELS 3 Xrotation Yrotation Zrotation
					JOINT newVegas:RightArm
					{
						OFFSET -25.438599 -2.830597 -13.032500
						CHANNELS 3 Xrotation Yrotation Zrotation
						JOINT newVegas:RightForeArm
						{
							OFFSET -29.960503 0.000000 0.000000
							CHANNELS 3 Xrotation Yrotation Zrotation
							JOINT newVegas:RightHand
							{
								OFFSET -27.849251 0.000000 0.000000
								CHANNELS 3 Xrotation Yrotation Zrotation
								JOINT newVegas:RightHandThumb1
								{
									OFFSET -4.487587 -3.305161 6.305391
									CHANNELS 3 Xrotation Yrotation Zrotation
									JOINT newVegas:RightHandThumb2
									{
										OFFSET -5.480453 -3.164139 3.164143
										CHANNELS 3 Xrotation Yrotation Zrotation
										JOINT newVegas:RightHandThumb3
										{
											OFFSET -5.159721 -2.978973 2.978967
											CHANNELS 3 Xrotation Yrotation Zrotation
											End Site
											{
												OFFSET -2.494507 5.926697 1.738678
											}
										}
									}
								}
								JOINT newVegas:RightHandIndex1
								{
									OFFSET -18.578728 -0.527832 5.208049
									CHANNELS 3 Xrotation Yrotation Zrotation
									JOINT newVegas:RightHandIndex2
									{
										OFFSET -3.192009 0.000000 0.000000
										CHANNELS 3 Xrotation Yrotation Zrotation
										JOINT newVegas:RightHandIndex3
										{
											OFFSET -3.835129 0.000000 0.000000
											CHANNELS 3 Xrotation Yrotation Zrotation
											End Site
											{
												OFFSET 0.034599 3.816971 0.371180
											}
										}
									}
								}
								JOINT newVegas:RightHandMiddle1
								{
									OFFSET -18.476105 0.000000 0.000000
									CHANNELS 3 Xrotation Yrotation Zrotation
									JOINT newVegas:RightHandMiddle2
									{
										OFFSET -3.324875 0.000000 0.000000
										CHANNELS 3 Xrotation Yrotation Zrotation
										JOINT newVegas:RightHandMiddle3
										{
											OFFSET -4.596550 0.000000 0.000000
											CHANNELS 3 Xrotation Yrotation Zrotation
											End Site
											{
												OFFSET -0.057701 4.578827 0.399218
											}
										}
									}
								}
								JOINT newVegas:RightHandRing1
								{
									OFFSET -17.732719 0.121887 -4.201567
									CHANNELS 3 Xrotation Yrotation Zrotation
									JOINT newVegas:RightHandRing2
									{
										OFFSET -2.733170 0.000000 0.000000
										CHANNELS 3 Xrotation Yrotation Zrotation
										JOINT newVegas:RightHandRing3
										{
											OFFSET -3.178268 0.000000 0.000000
											CHANNELS 3 Xrotation Yrotation Zrotation
											End Site
											{
												OFFSET -0.119102 3.170624 0.185394
											}
										}
									}
								}
								JOINT newVegas:RightHandPinky1
								{
									OFFSET -15.989624 -0.606689 -7.535461
									CHANNELS 3 Xrotation Yrotation Zrotation
									JOINT newVegas:RightHandPinky2
									{
										OFFSET -2.538986 0.000000 0.000000
										CHANNELS 3 Xrotation Yrotation Zrotation
										JOINT newVegas:RightHandPinky3
										{
											OFFSET -2.593102 0.000000 0.000000
											CHANNELS 3 Xrotation Yrotation Zrotation
											End Site
											{
												OFFSET 0.150902 2.584198 0.152708
											}
										}
									}
								}
							}
							JOINT newVegas:Right_CapeC
							{
								OFFSET -15.715958 -8.608795 -6.935905
								CHANNELS 3 Xrotation Yrotation Zrotation
								JOINT newVegas:Right_CapeC1
								{
									OFFSET 0.000000 -8.688499 0.000000
									CHANNELS 3 Xrotation Yrotation Zrotation
									End Site
									{
										OFFSET 0.000000 8.688499 0.000000
									}
								}
							}
							JOINT newVegas:Right_Sleeve
							{
								OFFSET -0.267448 -0.649994 0.577675
								CHANNELS 3 Xrotation Yrotation Zrotation
								End Site
								{
									OFFSET 0.000000 15.991302 0.000000
								}
							}
						}
						JOINT newVegas:Right_CapeA
						{
							OFFSET -5.115540 -8.608795 -10.395824
							CHANNELS 3 Xrotation Yrotation Zrotation
							JOINT newVegas:Right_CapeA1
							{
								OFFSET 0.000000 -8.688499 0.000000
								CHANNELS 3 Xrotation Yrotation Zrotation
								End Site
								{
									OFFSET 0.000000 8.688499 0.000000
								}
							}
						}
						JOINT newVegas:Right_CapeB
						{
							OFFSET -26.118187 -8.608795 -7.079266
							CHANNELS 3 Xrotation Yrotation Zrotation
							JOINT newVegas:Right_CapeB1
							{
								OFFSET 0.000000 -8.688499 0.000000
								CHANNELS 3 Xrotation Yrotation Zrotation
								End Site
								{
									OFFSET 0.000000 8.688499 0.000000
								}
							}
						}
					}
				}
				JOINT newVegas:Left_Collar
				{
					OFFSET 18.625099 8.655502 8.828100
					CHANNELS 3 Xrotation Yrotation Zrotation
					JOINT newVegas:Left_Collar1
					{
						OFFSET 14.783401 10.540405 -1.259500
						CHANNELS 3 Xrotation Yrotation Zrotation
						End Site
						{
							OFFSET 0.000000 18.199875 0.000000
						}
					}
				}
				JOINT newVegas:Collar_Back
				{
					OFFSET 0.000000 15.630707 -20.132601
					CHANNELS 3 Xrotation Yrotation Zrotation
					End Site
					{
						OFFSET 0.000000 22.523010 0.000000
					}
				}
				JOINT newVegas:Left_Peck
				{
					OFFSET 17.239599 -5.132599 25.482599
					CHANNELS 3 Xrotation Yrotation Zrotation
					End Site
					{
						OFFSET 0.000000 22.523010 0.000000
					}
				}
				JOINT newVegas:Right_Peck
				{
					OFFSET -17.239599 -5.132202 25.482599
					CHANNELS 3 Xrotation Yrotation Zrotation
					End Site
					{
						OFFSET 0.000000 22.523010 0.000000
					}
				}
				JOINT newVegas:Right_Collar
				{
					OFFSET -18.625099 8.655792 8.828100
					CHANNELS 3 Xrotation Yrotation Zrotation
					JOINT newVegas:Right_Collar1
					{
						OFFSET -14.783401 10.539993 -1.259500
						CHANNELS 3 Xrotation Yrotation Zrotation
						End Site
						{
							OFFSET 0.000000 18.199631 0.000000
						}
					}
				}
			}
		}
		JOINT newVegas:Belly
		{
			OFFSET 0.000000 -6.540398 9.014299
			CHANNELS 3 Xrotation Yrotation Zrotation
			End Site
			{
				OFFSET 0.000000 11.566666 0.000000
			}
		}
	}
	JOINT newVegas:ElvisFacialAnim_Joint
	{
		OFFSET 1.000000 -95.330101 -8.825800
		CHANNELS 3 Xrotation Yrotation Zrotation
		End Site
		{
			OFFSET 0.000000 35.315800 0.000000
		}
	}
}
MOTION
Frames: 4
Frame Time: 0.016667
-4.572050 120.648941 10.559122 3.635593 -35.651327 3.449169 -0.000000 0.000001 0.000000 -91.356984 -26.306952 25.769730 81.577703 1.052007 7.955377 8.125120 -1.279240 0.028128 0.000000 -0.000001 -0.000001 0.000001 -0.000001 -0.000000 -139.236780 -41.012831 -10.433181 117.365955 16.169732 -14.869327 34.775946 5.270603 34.358843 -0.000001 -0.000000 -0.000002 0.000001 0.000000 0.000001 31.678127 -6.218030 -9.573793 14.129380 0.964740 -3.082677 14.083574 0.916920 -3.297919 -2.089166 4.124735 -2.779633 -2.089146 4.124716 -2.779615 0.000001 0.000000 0.000001 -2.089064 4.124740 -2.779638 -2.089218 4.124724 -2.779620 0.000001 0.000000 0.000000 0.000001 0.000000 0.000000 11.474046 -16.374139 4.408426 -62.668789 -4.844738 -3.758215 45.767646 -24.019402 29.511127 -12.970315 31.805944 18.858163 40.109944 -15.297102 -0.360410 5.639812 28.097621 11.338683 0.000000 -0.000002 -0.000003 6.882254 2.840055 -61.140411 8.247920 7.639987 -89.897939 0.000001 -0.000002 -0.000000 -2.345505 4.688820 -62.655327 8.754116 9.897111 -87.051102 -0.000002 0.000001 0.000001 -9.042523 10.045652 -60.766335 8.524098 9.508800 -66.893104 0.000000 0.000001 -0.000001 -17.946933 14.754952 -51.485795 8.868394 8.667019 -84.811968 0.000001 -0.000003 0.000001 0.000002 0.000001 0.000001 0.000002 0.000001 0.000001 0.000002 0.000000 0.000002 0.000000 0.000003 0.000002 0.000001 0.000002 0.000003 0.000000 0.000003 0.000002 0.000000 0.000003 0.000002 18.189202 24.092145 -9.603803 -33.453126 6.374205 2.980963 -41.939230 39.311140 29.275898 -2.634149 7.017174 -19.613206 -1.525698 -5.490518 13.054255 1.517209 -22.702490 -8.022589 0.000001 -0.000002 -0.000002 1.275686 4.855664 -8.441554 0.521784 0.316515 6.397935 0.000001 0.000003 0.000001 0.864002 -5.171142 -11.645872 1.544695 -3.773589 21.274076 0.000001 -0.000002 -0.000001 1.777572 -11.827273 -9.453279 1.762682 -2.960314 20.651839 0.000002 0.000001 0.000001 2.612850 -21.378198 -4.080151 5.314409 -1.204973 -0.000021 -0.000000 -0.000002 -0.000003 0.000001 -0.000000 0.000006 0.000001 0.000000 0.000004 0.000001 -0.000000 0.000004 -0.000001 0.000000 -0.000000 -0.000001 -0.000001 -0.000001 -0.000001 0.000000 -0.000000 -0.000001 -0.000000 -0.000001 -0.000000 0.000002 -0.000000 -0.000000 0.000002 -0.000000 -0.000000 0.000002 -0.000000 -0.000000 0.000002 -0.000000 -0.000000 0.000002 -0.000000 -0.000000 0.000002 -0.000000 -0.000000 0.000002 -0.000000 -0.000001 -0.000001 0.000002 -0.000000 0.000001 0.000000 
-4.564065 120.632141 10.515747 3.659718 -35.757178 3.502001 -0.000000 0.000004 -0.000000 -91.356744 -26.313217 25.799004 81.542070 0.975231 7.923334 8.188590 -1.154910 -0.077183 -0.000000 0.000000 -0.000001 -0.000000 0.000001 -0.000002 -139.058676 -41.039656 -10.454679 117.275291 16.216080 -14.871834 34.626979 5.219803 34.272923 0.000000 0.000000 -0.000001 0.000002 0.000001 -0.000002 31.683738 -6.229480 -9.584332 14.124491 0.962690 -3.082691 14.081439 0.915140 -3.297783 -2.081894 4.130117 -2.780950 -2.081892 4.130125 -2.780957 -0.000000 0.000000 -0.000000 -2.081884 4.130116 -2.780945 -2.081887 4.130144 -2.780956 0.000000 0.000000 -0.000001 -0.000000 0.000000 -0.000001 11.372203 -16.443313 3.967046 -62.208065 -4.571397 -3.790333 45.710464 -23.896276 29.381220 -13.152809 31.668346 18.894682 40.109944 -15.297105 -0.360416 5.639811 28.097619 11.338680 0.000002 0.000000 -0.000004 6.882253 2.840055 -61.140418 8.247920 7.639989 -89.897939 -0.000000 0.000002 -0.000001 -2.345505 4.688823 -62.655333 8.754118 9.897113 -87.051102 0.000001 0.000000 0.000003 -9.042522 10.045649 -60.766328 8.524096 9.508800 -66.893097 -0.000000 -0.000002 0.000002 -17.946932 14.754952 -51.485795 8.868397 8.667026 -84.811968 -0.000002 0.000000 0.000000 0.000001 0.000000 0.000002 0.000001 0.000000 0.000002 0.000001 -0.000000 0.000002 0.000000 0.000000 0.000002 0.000001 -0.000001 0.000002 0.000000 0.000000 0.000002 0.000000 -0.000000 0.000001 18.029160 24.259189 -9.213512 -32.985538 6.584515 2.975909 -41.769803 39.073682 29.004702 -2.558822 7.327774 -19.065119 -1.525699 -5.490520 13.054260 1.517208 -22.702499 -8.022595 0.000003 -0.000002 -0.000003 1.264165 4.823530 -8.200509 0.528599 0.186452 7.355368 -0.000001 -0.000003 0.000001 0.874215 -5.218024 -11.333218 1.587302 -3.878971 22.059935 -0.000002 0.000000 0.000005 1.813570 -11.822572 -9.179907 1.792582 -3.024122 21.110289 0.000000 -0.000003 0.000001 2.626232 -21.407370 -3.836573 5.351737 -1.276965 0.651231 0.000000 -0.000000 0.000003 0.000001 -0.000003 0.000003 0.000002 -0.000001 0.000003 0.000001 -0.000003 0.000003 -0.000000 0.000001 0.000003 -0.000001 0.000001 0.000003 -0.000000 0.000001 0.000003 -0.000001 0.000001 0.000003 0.000001 0.000000 -0.000000 0.000001 0.000000 -0.000000 0.000001 0.000000 -0.000000 0.000001 0.000000 -0.000000 0.000001 0.000000 -0.000000 0.000001 0.000000 -0.000000 0.000001 0.000000 -0.000000 -0.000000 0.000000 -0.000000 -0.000000 0.000004 -0.000000 
-4.555941 120.617783 10.463593 3.684853 -35.849409 3.558035 -0.000000 -0.000000 0.000000 -91.343897 -26.278565 25.806965 81.508636 0.952458 7.910379 8.142461 -1.065812 -0.114893 -0.000001 0.000000 -0.000001 0.000001 -0.000001 0.000001 -138.849358 -41.073954 -10.466997 117.179900 16.281576 -14.876663 34.445867 5.159599 34.181873 -0.000001 -0.000000 -0.000001 0.000000 -0.000001 -0.000002 31.675938 -6.242598 -9.592646 14.121945 0.960002 -3.082259 14.068815 0.912810 -3.297121 -2.076836 4.135820 -2.778969 -2.076849 4.135826 -2.778971 0.000001 0.000000 0.000002 -2.076877 4.135841 -2.778967 -2.076771 4.135798 -2.778966 0.000001 -0.000001 0.000000 0.000001 0.000000 0.000001 11.267118 -16.494268 3.552181 -61.836373 -4.277146 -3.867886 45.655286 -23.778470 29.256671 -13.315561 31.475079 18.907545 40.109944 -15.297102 -0.360414 5.639815 28.097614 11.338679 0.000000 -0.000001 -0.000003 6.882253 2.840054 -61.140418 8.247922 7.639988 -89.897946 -0.000004 0.000004 -0.000000 -2.345503 4.688820 -62.655327 8.754118 9.897115 -87.051102 -0.000001 -0.000001 0.000000 -9.042520 10.045652 -60.766328 8.524099 9.508801 -66.893097 -0.000005 -0.000001 0.000002 -17.946933 14.754954 -51.485792 8.868394 8.667018 -84.811968 -0.000002 0.000000 0.000000 -0.000002 -0.000000 0.000000 -0.000002 -0.000000 0.000000 -0.000002 -0.000001 0.000000 -0.000001 0.000001 -0.000001 -0.000000 0.000000 -0.000001 -0.000001 0.000001 -0.000001 -0.000001 0.000001 -0.000000 17.871448 24.380048 -8.840627 -32.509665 6.730319 2.966674 -41.608081 38.845154 28.745698 -2.194469 7.735461 -18.572671 -1.525704 -5.490521 13.054255 1.517202 -22.702500 -8.022583 -0.000000 -0.000001 -0.000002 1.252745 4.791385 -7.959526 0.537552 0.056548 8.312890 -0.000003 0.000000 -0.000002 0.884689 -5.264783 -11.020547 1.631340 -3.983793 22.846013 0.000002 0.000001 -0.000002 1.849496 -11.817698 -8.906587 1.822952 -3.087667 21.568783 0.000001 0.000004 0.000002 2.639514 -21.436433 -3.593012 5.390295 -1.348507 1.586682 -0.000001 0.000002 -0.000003 -0.000001 0.000001 -0.000000 -0.000001 0.000001 0.000002 -0.000001 0.000001 -0.000000 0.000003 0.000000 0.000001 0.000002 0.000000 0.000002 0.000003 0.000000 0.000001 0.000003 0.000000 0.000002 -0.000000 -0.000001 0.000001 -0.000000 -0.000001 0.000001 -0.000000 -0.000001 0.000001 -0.000000 -0.000001 0.000001 -0.000000 -0.000001 0.000001 -0.000000 -0.000001 0.000001 -0.000000 -0.000001 0.000001 0.000000 0.000001 -0.000001 -0.000000 -0.000000 0.000000 
-4.542413 120.597832 10.417566 3.711273 -35.922977 3.611438 -0.000000 -0.000001 0.000000 -91.320592 -26.265072 25.826538 81.436277 0.932353 7.905440 8.171074 -1.017263 -0.200360 -0.000001 0.000002 -0.000003 -0.000000 0.000002 -0.000003 -138.627623 -41.079476 -10.471273 117.086873 16.322281 -14.878276 34.266048 5.105108 34.135141 -0.000000 -0.000000 0.000000 0.000003 -0.000000 0.000001 31.662445 -6.250867 -9.599268 14.106479 0.954765 -3.080995 14.049173 0.908809 -3.295738 -2.067981 4.141226 -2.777462 -2.067954 4.141212 -2.777457 0.000000 0.000000 -0.000002 -2.067918 4.141221 -2.777467 -2.067992 4.141223 -2.777460 0.000001 -0.000001 0.000000 0.000000 0.000000 -0.000001 11.178832 -16.526058 3.162650 -61.569436 -3.861266 -3.799269 45.619728 -23.701740 29.176943 -13.445419 31.206366 18.883643 40.109944 -15.297107 -0.360414 5.639815 28.097621 11.338683 0.000003 -0.000002 -0.000003 6.882254 2.840053 -61.140411 8.247920 7.639988 -89.897939 -0.000004 -0.000000 0.000001 -2.345509 4.688821 -62.655327 8.754112 9.897108 -87.051102 -0.000000 -0.000000 0.000002 -9.042520 10.045652 -60.766335 8.524100 9.508803 -66.893097 -0.000000 -0.000002 -0.000000 -17.946933 14.754954 -51.485802 8.868393 8.667021 -84.811968 -0.000000 -0.000001 -0.000002 0.000001 -0.000000 0.000002 0.000001 -0.000000 0.000002 0.000000 -0.000000 0.000002 -0.000000 0.000000 -0.000005 0.000000 -0.000000 -0.000004 -0.000000 0.000000 -0.000005 -0.000000 0.000001 -0.000004 17.715216 24.468461 -8.495868 -32.128855 6.751244 2.910640 -41.451428 38.621383 28.494033 -1.622676 7.766567 -18.155256 -1.525698 -5.490515 13.054256 1.517212 -22.702490 -8.022592 0.000000 0.000003 0.000001 1.241615 4.759414 -7.720686 0.548542 -0.072029 9.261822 0.000000 -0.000001 -0.000000 0.895327 -5.311140 -10.710607 1.676470 -4.087022 23.625240 -0.000001 0.000002 0.000004 1.885105 -11.812649 -8.635647 1.853584 -3.150463 22.023185 -0.000000 0.000000 0.000003 2.652751 -21.465150 -3.351508 5.429578 -1.418823 2.513891 -0.000002 -0.000002 -0.000002 0.000000 0.000001 0.000003 0.000000 -0.000003 0.000000 0.000000 0.000001 0.000003 -0.000001 0.000002 -0.000000 -0.000002 0.000002 -0.000000 -0.000001 0.000002 -0.000000 -0.000002 0.000003 -0.000000 0.000003 0.000000 0.000002 0.000003 0.000000 0.000002 0.000003 0.000000 0.000002 0.000003 0.000000 0.000002 0.000003 0.000000 0.000002 0.000003 0.000000 0.000002 0.000003 0.000000 0.000002 -0.000003 -0.000001 -0.000000 -0.000000 -0.000001 0.000000 
